<?xml version="1.0"?>
<svg width="100" height="100" xmlns="http://www.w3.org/2000/svg">

 <g>
  <title>background</title>
  <rect fill="none" id="canvas_background" height="402" width="582" y="-1" x="-1"/>
 </g>
 <g>
  <title>Layer 1</title>
  <g id="svg_1" display="none">
   <circle id="svg_2" r="6.217" cy="20.747" cx="29.207"/>
   <circle id="svg_3" r="6.217" cy="43.783" cx="11.902"/>
   <rect id="svg_4" height="6.217" width="6.218" transform="matrix(0.7071 0.7071 -0.7071 0.7071 40.9816 -0.454)" y="46.13" x="17.93"/>
   <rect id="svg_5" height="6.217" width="6.218" transform="matrix(0.7071 0.7071 -0.7071 0.7071 42.7979 3.9429)" y="50.525" x="13.531"/>
   <rect id="svg_6" height="6.218" width="6.217" transform="matrix(0.7071 0.7071 -0.7071 0.7071 44.6222 8.3396)" y="54.92" x="9.137"/>
   <rect id="svg_7" height="6.217" width="6.218" transform="matrix(0.707 0.7072 -0.7072 0.707 47.2039 2.1251)" y="54.921" x="17.928"/>
   <rect id="svg_8" height="6.217" width="6.218" transform="matrix(0.7071 0.7071 -0.7071 0.7071 49.0139 6.5177)" y="59.315" x="13.531"/>
   <rect id="svg_9" height="6.217" width="6.219" transform="matrix(0.7071 0.7071 -0.7071 0.7071 51.4722 0.3522)" y="59.195" x="22.202"/>
   <rect id="svg_10" height="6.217" width="6.219" transform="matrix(0.7071 0.7071 -0.7071 0.7071 49.6082 -4.062)" y="54.738" x="26.598"/>
   <rect id="svg_11" height="6.217" width="6.218" transform="matrix(0.707 0.7072 -0.7072 0.707 54.0123 -5.8821)" y="59.134" x="30.996"/>
   <rect id="svg_12" height="6.217" width="6.219" transform="matrix(0.7071 0.7071 -0.7071 0.7071 58.4002 -7.7041)" y="63.529" x="35.39"/>
   <rect id="svg_13" height="6.217" width="6.218" transform="matrix(0.707 0.7072 -0.7072 0.707 62.8013 -9.5256)" y="67.925" x="39.788"/>
   <rect id="svg_14" height="6.218" width="6.217" transform="matrix(0.7071 0.7071 -0.7071 0.7071 53.2931 4.7475)" y="63.59" x="17.808"/>
   <rect id="svg_15" height="6.217" width="6.218" transform="matrix(0.7071 0.7071 -0.7071 0.7071 57.6516 2.9346)" y="67.956" x="22.174"/>
   <rect id="svg_16" height="6.217" width="6.218" transform="matrix(0.7071 0.7071 -0.7071 0.7071 62.0158 1.1361)" y="72.319" x="26.528"/>
   <rect id="svg_17" height="6.217" width="6.219" transform="matrix(0.7069 0.7073 -0.7073 0.7069 63.8433 5.5033)" y="76.679" x="22.172"/>
   <rect id="svg_18" height="6.216" width="6.219" transform="matrix(0.7069 0.7073 -0.7073 0.7069 46.4548 12.7438)" y="59.318" x="4.741"/>
   <rect id="svg_19" height="6.217" width="6.218" transform="matrix(0.7071 0.7071 -0.7071 0.7071 39.1562 -4.8498)" y="41.732" x="22.323"/>
   <rect id="svg_20" height="6.217" width="6.218" transform="matrix(0.7071 0.7071 -0.7071 0.7071 37.3471 -9.2157)" y="37.366" x="26.689"/>
  </g>
  <g id="svg_21">
   <circle id="svg_22" r="7.059" cy="36.052" cx="12.721"/>
   <path id="svg_23" d="m53.198002,28.337l-5.713001,5.712c-0.168999,0.168999 -0.313999,0.339001 -0.423,0.533001c-0.278999,0.387001 -0.448002,0.811001 -0.533001,1.258999c-0.048,0.23 -0.071999,0.472 -0.071999,0.714001c0,0.23 0.022999,0.447998 0.059998,0.666l0.568001,1.330997c0.110001,0.182003 0.243,0.339001 0.399002,0.497002l0.013,0c0.410999,0.424 0.907997,0.714001 1.438999,0.870998c0.133999,0.037003 0.265999,0.073002 0.410999,0.097c0.049,0 0.097,0.013 0.146,0.024002c0.133999,0.023998 0.265999,0.036999 0.410999,0.023998c0.025002,0.012001 0.062,0.012001 0.084999,0.012001l0.217003,0l13.893997,0c0.969002,0 1.863998,-0.398998 2.493004,-1.028999c0.641998,-0.642002 1.041,-1.525002 1.041,-2.493c0,-1.948002 -1.586006,-3.534 -3.534004,-3.534l-5.591,0l10.492001,-10.493l3.750999,3.750999l0.025002,0.024c0.071999,0.085001 0.156998,0.182001 0.241997,0.267l12.491005,12.477001c0.689995,0.688999 1.586998,1.041 2.493996,1.041s1.804001,-0.351002 2.492004,-1.041c1.380997,-1.380001 1.380997,-3.618999 0,-4.999001l-8.786003,-8.786001c-0.070999,-0.084 -0.155998,-0.181 -0.241997,-0.266998l-12.477005,-12.475c-0.689995,-0.690001 -1.598,-1.042001 -2.492996,-1.042001c-0.109001,0 -0.229004,0 -0.339005,0.013l-13.686996,0l0,0.024c-0.834999,0.049 -1.646,0.387 -2.275002,1.016999l-7.127998,7.140001l-0.073002,0.060999c-0.059998,0.059999 -0.132,0.121 -0.194,0.181l-12.476997,12.476999c-0.084002,0.084 -0.17,0.182003 -0.243,0.266003l-11.497002,11.497997c-0.084,0.084 -0.168999,0.181 -0.241999,0.266003l-8.677,8.676998c-0.109,0.109001 -0.206,0.218002 -0.278,0.326c0,0 -0.012,0.014 -0.024,0.014c-0.013,0.012001 -0.013,0.012001 -0.037001,0.035l-4.986,4.986c-0.327,0.327 -0.593,0.727001 -0.774,1.174999c-0.037,0.108002 -0.072,0.205002 -0.109,0.314003c-0.109,0.325996 -0.158,0.664997 -0.158,1.003998c0,0.109001 0,0.229 0.012,0.338001l0,6.729996c0,0.012001 0,0.012001 0,0.023003l0,4.538002c0,0.013 0,0.013 0,0.024002c0,1.936996 1.585,3.496994 3.521,3.496994c1.948999,0 3.533999,-1.571999 3.533999,-3.520996l0,-10.164001l2.215,-2.215l0,22.328999l-11.448,11.436005c-0.689,0.688995 -1.029,1.598 -1.029,2.492996c0,0.907997 0.339,1.815002 1.029,2.506004c1.38,1.378998 3.619,1.378998 4.998,0l12.478001,-12.490005c0.097,-0.097 0.194,-0.204994 0.278,-0.313995c0.060999,-0.073006 0.121,-0.157005 0.168999,-0.242004c0.121,-0.181999 0.230001,-0.375999 0.303001,-0.568001c0.036999,-0.072998 0.060999,-0.145996 0.097,-0.229996c0.120998,-0.362 0.181999,-0.75 0.181999,-1.138l0,-11.400002l14.123001,0l0,14.111c0,0.980003 0.398998,1.851997 1.042,2.494003c0.640999,0.639999 1.513,1.039993 2.492001,1.039993c1.948997,0 3.521999,-1.584999 3.521999,-3.533997l0,-17.647003c0,-1.946999 -1.573002,-3.532997 -3.521999,-3.532997l-10.590002,0l0,-19.485001l2.917,-2.917c0.048,-0.048 0.085001,-0.084999 0.121,-0.132999l6.317001,-6.317001c0.084,-0.084 0.168999,-0.181999 0.242001,-0.265999l3.654999,-3.654999c0.084999,-0.073002 0.181999,-0.158001 0.265999,-0.242001l10.421001,-10.42l8.811001,0l-6.196003,6.196001c-0.026997,0.023998 -0.037998,0.035999 -0.061996,0.060999z"/>
   <rect stroke="#000000" fill="none" stroke-width="5" id="svg_24" height="49.437" width="50.436999" y="48.063001" x="47.063001"/>
   <circle id="svg_25" r="7.059" cy="11.486" cx="37.242"/>
  </g>
 </g>
</svg>