<?xml version="1.0" encoding="UTF-8"?>
<svg width="1200pt" height="1200pt" version="1.1" viewBox="0 0 1200 1200" xmlns="http://www.w3.org/2000/svg">
 <path d="m178.74 861.82 76.449-210.69 176.98-61.223c16.332-5.6484 28.039-2.2148 33.215 9.6406l2.0781 6.8867c1.9492 11.223-2.1953 24.727-20.09 31.375l-109.04 40.629c-3.2266 1.2148-5.7461 3.7969-6.8438 7.082l-42.148 122.19c-3.1367 9.2617 6.1602 17.926 15.191 14.203 35.453-14.633 64.883 2.8516 90.387 21.293 31.871 23.035 48.547 69.133 46.492 127.46h-47.59c2.25-48.754-15.461-70.68-31.449-80.547-33.883-20.863-90.039-7.2305-162.4 39.434-1.9258 1.2383-3.4102 3.0039-4.3047 5.0898l-55.359 127.75h-46.645zm-106.79 223.46h288.75v52.316l-288.75-0.003906zm311.62-91.738v144.05h288.72v-144.05zm538.35-827.19v-103.94h206.13l-40.605 40.605c-6.2734 6.2734-6.2578 16.469 0 22.727l40.605 40.605zm61.996 971.24h-288.75v-283.16h288.75zm-47.559-838.96c-4.8516-13.566-14.805-22.715-19.809-25.254l-12.395 13.625v-224.59h-22.875v249.73l-118.97 130.77c-2.4805 2.7539-57.387 38.559-65.516 44.082-2.6602 1.8086-176.85 70.148-195.7 77.602-11.211 4.4336-15.656 17.066-13.805 28.113l2.0664 6.7266c5.7227 12.578 19.539 15.883 38.293 8.9414l141.47-52.355c7.6055-2.832 15.672 2.9844 15.387 11.113l-2.8086 84.25c-0.0625 1.8594-0.57031 3.6562-1.4844 5.2617l-178.2 314.02h49.98l130.3-218.38c0.18359-0.28906 0.375-0.57031 0.55078-0.83984 24.316-33.656 87.324-36.605 117.27-33.453 5.8086 0.625 10.223 5.5195 10.223 11.375v102.18h51.336l-0.003906-144.05c0-6.6211-6.668-19.789-17.41-28.402-9.8477-7.8984-23.484-11.562-30.816-11.562h-11.32c-6.3164 0-11.438-5.1211-11.438-11.438l0.003907-142.67c0-2.8633 1.0742-5.6055 2.9922-7.7148l87.605-96.023v441.86h22.875v-466.94l23.801-26.086c10.801-11.824 13.609-25.254 8.4023-39.898zm-259.54 114.43c-41.543 0-75.352-33.82-75.352-75.352 0-41.574 33.809-75.383 75.352-75.383 41.543 0 75.352 33.809 75.352 75.383-0.003906 41.535-33.809 75.352-75.352 75.352zm-322.97 161.39c41.543 0 75.352-33.809 75.352-75.352s-33.809-75.352-75.352-75.352c-41.566 0-75.352 33.809-75.352 75.352 0.003906 41.543 33.789 75.352 75.352 75.352z" fill-rule="evenodd"/>
</svg>
