<?xml version="1.0" encoding="UTF-8" standalone="no"?>
<svg
   xmlns:dc="http://purl.org/dc/elements/1.1/"
   xmlns:cc="http://creativecommons.org/ns#"
   xmlns:rdf="http://www.w3.org/1999/02/22-rdf-syntax-ns#"
   xmlns:svg="http://www.w3.org/2000/svg"
   xmlns="http://www.w3.org/2000/svg"
   xmlns:sodipodi="http://sodipodi.sourceforge.net/DTD/sodipodi-0.dtd"
   xmlns:inkscape="http://www.inkscape.org/namespaces/inkscape"
   width="185.96687mm"
   height="100.62453mm"
   viewBox="0 0 185.96687 100.62453"
   version="1.1"
   id="svg8"
   inkscape:version="1.0beta2 (2b71d25, 2019-12-03)"
   sodipodi:docname="Logo.svg">
  <defs
     id="defs2" />
  <sodipodi:namedview
     fit-margin-bottom="0"
     fit-margin-right="0"
     fit-margin-left="0"
     fit-margin-top="0"
     id="base"
     pagecolor="#ffffff"
     bordercolor="#666666"
     borderopacity="1.0"
     inkscape:pageopacity="0.0"
     inkscape:pageshadow="2"
     inkscape:zoom="0.75823339"
     inkscape:cx="379.98066"
     inkscape:cy="629.43664"
     inkscape:document-units="mm"
     inkscape:current-layer="layer1"
     inkscape:document-rotation="0"
     showgrid="false"
     inkscape:window-width="1600"
     inkscape:window-height="1209"
     inkscape:window-x="960"
     inkscape:window-y="23"
     inkscape:window-maximized="0" />
  <metadata
     id="metadata5">
    <rdf:RDF>
      <cc:Work
         rdf:about="">
        <dc:format>image/svg+xml</dc:format>
        <dc:type
           rdf:resource="http://purl.org/dc/dcmitype/StillImage" />
        <dc:title></dc:title>
      </cc:Work>
    </rdf:RDF>
  </metadata>
  <g
     transform="translate(-12.123325,-3.4133112)"
     inkscape:label="Layer 1"
     inkscape:groupmode="layer"
     id="layer1">
    <path
       style="fill:#000000;stroke-width:0.0881945"
       d="m 21.576131,103.97994 c -0.76849,-0.11905 -1.75043,-0.47318 -2.41625,-0.87143 -1.07094,-0.64053 -1.82315,-1.61878 -2.27617,-2.96018 l -0.23829,-0.705556 -0.0275,-5.40191 -0.0276,-5.40191 h -0.83346 -0.83346 v -2.55764 -2.55763 h 0.83785 0.83784 v -1.72418 c 0,-1.87744 0.0503,-2.11861 0.48261,-2.3156 0.16098,-0.0734 0.95228,-0.10536 2.6042,-0.10536 1.65192,0 2.44322,0.032 2.6042,0.10536 0.43234,0.19699 0.48261,0.43816 0.48261,2.3156 v 1.72418 h 3.21494 c 3.45765,0 3.57577,0.0141 3.80313,0.45376 0.1653,0.31966 0.18233,3.82331 0.0203,4.1789 -0.21387,0.46939 -0.31837,0.48261 -3.81491,0.48261 h -3.22348 v 4.36129 c 0,4.60813 0.0339,5.07637 0.39757,5.49921 0.17738,0.20621 0.27087,0.23777 0.70446,0.23777 0.451,0 0.5246,-0.0276 0.75185,-0.28193 0.3358,-0.37583 0.44027,-0.77238 0.49499,-1.87884 0.0252,-0.50932 0.0881,-1.03705 0.13971,-1.17274 0.17622,-0.46291 0.38884,-0.50295 2.6708,-0.50295 2.30142,0 2.48574,0.0362 2.68967,0.52853 0.16448,0.3971 0.0682,3.90811 -0.12673,4.621656 -0.23119,0.84625 -0.80508,1.85287 -1.32971,2.33236 -0.62736,0.57337 -1.71483,1.12376 -2.75689,1.39532 -0.74505,0.19416 -1.08329,0.22748 -2.57738,0.25385 -0.94589,0.0167 -1.96059,-0.007 -2.2549,-0.0525 z m 66.23403,0 c -0.76849,-0.11905 -1.75043,-0.47318 -2.41625,-0.87143 -1.07094,-0.64053 -1.82314,-1.61878 -2.27617,-2.96018 l -0.23829,-0.705556 -0.0275,-5.40191 -0.0276,-5.40191 h -0.83784 c -0.93286,0 -1.25966,-0.11035 -1.42927,-0.48261 -0.071,-0.15583 -0.10537,-0.83528 -0.10537,-2.08355 0,-2.49992 0.0299,-2.54911 1.54756,-2.54911 h 0.83369 v -1.72418 c 0,-1.87744 0.0503,-2.11861 0.48261,-2.3156 0.16098,-0.0734 0.95228,-0.10536 2.6042,-0.10536 1.65192,0 2.44322,0.032 2.6042,0.10536 0.43234,0.19699 0.48261,0.43816 0.48261,2.3156 v 1.72418 h 3.21494 c 3.45765,0 3.57577,0.0141 3.80313,0.45376 0.1653,0.31966 0.18233,3.82331 0.0203,4.1789 -0.21387,0.46939 -0.31837,0.48261 -3.81491,0.48261 h -3.22348 v 4.36129 c 0,4.60813 0.0339,5.07637 0.39757,5.49921 0.17738,0.20621 0.27087,0.23777 0.70446,0.23777 0.45099,0 0.5246,-0.0276 0.75185,-0.28193 0.3358,-0.37583 0.44027,-0.77238 0.49499,-1.87884 0.0252,-0.50932 0.0881,-1.03705 0.13971,-1.17274 0.17621,-0.46291 0.38884,-0.50295 2.6708,-0.50295 2.30142,0 2.48574,0.0362 2.68967,0.52853 0.16448,0.3971 0.0682,3.90811 -0.12673,4.621656 -0.23119,0.84625 -0.80508,1.85287 -1.32972,2.33236 -0.62735,0.57337 -1.71482,1.12376 -2.75689,1.39532 -0.74504,0.19416 -1.08328,0.22748 -2.57738,0.25385 -0.94588,0.0167 -1.96059,-0.007 -2.25489,-0.0525 z m 56.268059,0 c -0.76849,-0.11905 -1.75043,-0.47318 -2.41625,-0.87143 -1.07094,-0.64053 -1.82314,-1.61878 -2.27617,-2.96018 l -0.23828,-0.705556 -0.0276,-5.40191 -0.0276,-5.40191 h -0.83784 c -0.93287,0 -1.25966,-0.11035 -1.42927,-0.48261 -0.071,-0.15583 -0.10537,-0.83528 -0.10537,-2.08355 0,-2.49992 0.0299,-2.54911 1.54756,-2.54911 h 0.83369 v -1.72418 c 0,-1.87744 0.0503,-2.11861 0.48261,-2.3156 0.16098,-0.0734 0.95227,-0.10536 2.6042,-0.10536 1.65192,0 2.44321,0.032 2.60419,0.10536 0.43235,0.19699 0.48261,0.43816 0.48261,2.3156 v 1.72418 h 3.21495 c 3.45765,0 3.57576,0.0141 3.80313,0.45376 0.1653,0.31966 0.18233,3.82331 0.0203,4.1789 -0.21387,0.46939 -0.31837,0.48261 -3.81491,0.48261 h -3.22348 v 4.36129 c 0,4.60813 0.0339,5.07637 0.39757,5.49921 0.17738,0.20621 0.27087,0.23777 0.70446,0.23777 0.451,0 0.5246,-0.0276 0.75184,-0.28193 0.3358,-0.37583 0.44028,-0.77238 0.495,-1.87884 0.0252,-0.50932 0.0881,-1.03705 0.1397,-1.17274 0.17623,-0.46291 0.38885,-0.50295 2.67081,-0.50295 2.30142,0 2.48574,0.0362 2.68966,0.52853 0.16448,0.3971 0.0682,3.90811 -0.12672,4.621656 -0.23119,0.84625 -0.80508,1.85287 -1.32972,2.33236 -0.62735,0.57337 -1.71482,1.12376 -2.75689,1.39532 -0.74504,0.19416 -1.08328,0.22748 -2.57738,0.25385 -0.94588,0.0167 -1.96058,-0.007 -2.25489,-0.0525 z m 36.38615,0.006 c -3.15076,-0.3086 -4.80042,-1.16464 -5.64714,-2.93041 -0.45839,-0.95592 -0.61126,-1.716436 -0.61314,-3.050326 -0.002,-1.19438 0.0848,-1.49562 0.48108,-1.67619 0.36507,-0.16634 5.09108,-0.14648 5.41837,0.0228 0.36612,0.18933 0.48981,0.56339 0.39041,1.18064 -0.15155,0.94101 0.0977,1.2991 1.08408,1.5576 1.66222,0.43561 4.14452,0.13168 4.7441,-0.58088 0.62333,-0.74078 0.22068,-1.88058 -0.74249,-2.10182 -0.21828,-0.0501 -0.93265,-0.0922 -1.5875,-0.0935 -2.27802,-0.004 -4.80552,-0.27289 -5.99208,-0.6362 -0.91149,-0.27909 -1.9028,-0.8342 -2.31245,-1.29491 -0.42578,-0.47887 -0.97634,-1.58132 -1.19472,-2.39236 -0.22418,-0.83254 -0.22575,-3.85597 -0.002,-4.66439 0.36113,-1.30728 1.11474,-2.38567 2.03518,-2.91229 1.30881,-0.74883 2.97491,-1.05678 6.09947,-1.12741 6.15981,-0.13921 8.33174,0.69834 9.30635,3.58881 0.24395,0.7235 0.35165,2.57108 0.17477,2.99811 -0.20775,0.50155 -0.36462,0.52967 -2.95473,0.52967 -2.96353,0 -2.91094,0.0215 -3.13726,-1.27816 -0.14194,-0.81511 -0.24097,-0.90321 -1.13786,-1.01224 -2.10573,-0.25599 -3.77489,0.0488 -4.15298,0.75836 -0.1744,0.32728 -0.16294,1.48955 0.0165,1.66894 0.18307,0.18307 1.57931,0.29724 3.69326,0.30201 3.12778,0.007 4.87229,0.25749 6.13997,0.88143 0.85362,0.42014 1.25861,0.8346 1.67187,1.711 0.48897,1.03694 0.58238,1.52312 0.62913,3.27456 0.0518,1.94216 -0.10392,2.87746 -0.67603,4.059436 -0.52809,1.09104 -1.14215,1.68668 -2.31165,2.24232 -1.66213,0.78968 -2.8181,0.97972 -6.20294,1.01971 -1.3582,0.016 -2.80679,-0.004 -3.2191,-0.0443 z m -142.610429,-0.0988 c -2.17972,-0.21861 -4.1364,-0.94046 -5.06424,-1.8683 -0.93624,-0.93624 -1.63581,-2.778816 -1.91564,-5.045526 -0.17837,-1.44481 -0.15606,-6.16081 0.0346,-7.32014 0.31703,-1.92743 0.93705,-3.43438 1.79236,-4.35633 0.82457,-0.88881 2.34514,-1.57854 4.22684,-1.91727 1.26369,-0.22748 5.42184,-0.23021 6.70278,-0.004 2.4044,0.42387 3.95697,1.3612 4.74797,2.86648 0.83011,1.57971 1.10339,3.00892 1.17862,6.164 0.0388,1.62976 0.0242,2.1996 -0.0619,2.40746 -0.22563,0.54473 -0.0248,0.52859 -6.57725,0.52859 h -5.96889 l 0.0618,0.7276 c 0.139,1.63657 0.48573,2.32042 1.28604,2.53642 1.05902,0.28582 2.30326,0.33349 3.60456,0.1381 1.09017,-0.1637 1.22724,-0.29071 1.35138,-1.25222 0.11697,-0.9059 0.21724,-1.16068 0.51801,-1.31622 0.32712,-0.16915 4.9654,-0.18896 5.33018,-0.0228 0.3857,0.17574 0.48261,0.48909 0.48261,1.56048 0,1.20509 -0.16795,1.95785 -0.6387,2.862726 -0.85636,1.64613 -2.58637,2.72173 -5.13842,3.19473 -0.94688,0.1755 -4.64339,0.24788 -5.95274,0.11656 z m 5.51484,-13.594556 c -0.0815,-0.76495 -0.28605,-1.35634 -0.53751,-1.55414 -0.33866,-0.26639 -1.28268,-0.40796 -2.68427,-0.40253 -2.08973,0.008 -2.70276,0.28055 -2.8977,1.28791 -0.0501,0.25868 -0.11658,0.639 -0.14782,0.84515 l -0.0568,0.37483 h 3.19141 3.19141 z m 60.719189,13.594556 c -2.17972,-0.21861 -4.136409,-0.94047 -5.064249,-1.86831 -0.93622,-0.93623 -1.6358,-2.778806 -1.91563,-5.045516 -0.17837,-1.44481 -0.15606,-6.16082 0.0346,-7.32014 0.31703,-1.92743 0.93704,-3.43438 1.79236,-4.35633 0.82457,-0.88881 2.345139,-1.57854 4.226849,-1.91728 1.26369,-0.22748 5.42183,-0.2302 6.70277,-0.005 2.40441,0.42388 3.95696,1.36121 4.74797,2.86649 0.83011,1.5797 1.10339,3.00892 1.17862,6.164 0.0389,1.62976 0.0242,2.1996 -0.0619,2.40746 -0.22564,0.54472 -0.0248,0.52859 -6.57726,0.52859 h -5.9689 l 0.0618,0.7276 c 0.139,1.63657 0.48573,2.32041 1.28604,2.53642 1.05902,0.28582 2.30326,0.33349 3.60456,0.13809 1.09017,-0.16369 1.22724,-0.2907 1.35139,-1.25221 0.11696,-0.9059 0.21723,-1.16068 0.518,-1.31622 0.32712,-0.16916 4.96541,-0.18897 5.33018,-0.0228 0.38569,0.17574 0.48261,0.48909 0.48261,1.56048 0,1.20509 -0.16795,1.95784 -0.6387,2.862726 -0.85636,1.64613 -2.58637,2.72173 -5.13842,3.19473 -0.94688,0.17549 -4.64339,0.24788 -5.95274,0.11656 z m 5.51484,-13.594556 c -0.0815,-0.76495 -0.28604,-1.35634 -0.53751,-1.55415 -0.33866,-0.26639 -1.28268,-0.40795 -2.68427,-0.40252 -2.08973,0.008 -2.70277,0.28055 -2.8977,1.28791 -0.0501,0.25867 -0.11658,0.63899 -0.14782,0.84515 l -0.0568,0.37482 h 3.19141 3.19141 z M 51.974761,103.6853 c -0.46269,-0.25645 -0.4442,0.15671 -0.44755,-10.001616 -0.004,-10.2829 -0.0252,-9.82469 0.47948,-10.05466 0.16027,-0.073 0.93246,-0.10536 2.516,-0.10536 1.58355,0 2.35573,0.0324 2.51601,0.10536 0.27531,0.12544 0.4826,0.49137 0.4826,0.85193 v 0.2605 l 0.72177,-0.43379 c 1.23164,-0.74023 2.53378,-1.04891 4.42194,-1.04823 2.83669,0.001 4.95958,0.8904 6.10541,2.55784 0.51187,0.7449 0.89328,1.69362 1.05601,2.62678 0.17324,0.99343 0.19587,14.506526 0.0249,14.881716 -0.20661,0.45346 -0.38668,0.48261 -2.98144,0.48261 -2.61531,0 -2.79558,-0.0304 -2.98387,-0.50296 -0.0684,-0.1716 -0.10571,-2.24674 -0.12267,-6.817176 -0.0269,-7.25738 -0.002,-6.93731 -0.58965,-7.43218 -0.40441,-0.34029 -0.89756,-0.4548 -1.94826,-0.45238 -2.02226,0.004 -3.05952,0.70591 -3.39646,2.29624 -0.10467,0.494 -0.12853,1.6711 -0.12978,6.39996 -0.001,4.301936 -0.0286,5.854206 -0.1069,6.025886 -0.2071,0.45455 -0.38434,0.48287 -2.99911,0.47949 -1.82881,-0.002 -2.45836,-0.0312 -2.61846,-0.11996 z m 66.234039,0 c -0.4627,-0.25645 -0.4442,0.15671 -0.44756,-10.001616 -0.003,-10.2829 -0.0252,-9.82469 0.47948,-10.05466 0.16028,-0.073 0.93246,-0.10536 2.516,-0.10536 1.58355,0 2.35573,0.0324 2.51601,0.10536 0.27531,0.12544 0.48261,0.49137 0.48261,0.85193 v 0.2605 l 0.72177,-0.43379 c 1.23164,-0.74023 2.53377,-1.04891 4.42194,-1.04823 2.83668,0.001 4.95958,0.8904 6.1054,2.55784 0.51188,0.7449 0.89328,1.69362 1.05601,2.62678 0.17324,0.99343 0.19587,14.506526 0.0249,14.881716 -0.20661,0.45346 -0.38667,0.48261 -2.98144,0.48261 -2.6153,0 -2.79557,-0.0304 -2.98387,-0.50296 -0.0684,-0.1716 -0.10571,-2.24674 -0.12267,-6.817176 -0.0269,-7.25738 -0.002,-6.93731 -0.58965,-7.43218 -0.4044,-0.34029 -0.89756,-0.4548 -1.94826,-0.45238 -2.02226,0.004 -3.05952,0.70591 -3.39646,2.29624 -0.10466,0.494 -0.12853,1.6711 -0.12978,6.39996 -10e-4,4.301936 -0.0287,5.854206 -0.1069,6.025886 -0.2071,0.45455 -0.38433,0.48287 -2.9991,0.47949 -1.82881,-0.002 -2.45836,-0.0312 -2.61846,-0.11996 z m 36.15972,0 c -0.4673,-0.259 -0.4442,0.46199 -0.44756,-13.970366 -0.003,-14.60573 -0.0313,-13.7907 0.47949,-14.02341 0.16098,-0.0734 0.95227,-0.10536 2.60419,-0.10536 1.65193,0 2.44322,0.032 2.6042,0.10536 0.48098,0.21915 0.48261,0.23535 0.48261,4.7937 v 4.20228 l 0.28663,-0.19197 c 0.54233,-0.36322 1.69883,-0.87073 2.3151,-1.01595 0.85937,-0.2025 2.81485,-0.27096 3.88644,-0.13609 2.65589,0.3343 4.36807,1.54669 5.2521,3.719 0.5063,1.24414 0.51876,1.46213 0.51876,9.08037 0,5.201826 -0.0265,7.009866 -0.10537,7.182906 -0.20652,0.45325 -0.38736,0.48261 -2.97291,0.48261 -1.65853,0 -2.45168,-0.032 -2.61273,-0.10537 -0.49432,-0.22522 -0.48249,-0.0582 -0.48398,-6.835556 -0.001,-6.74678 -0.0147,-6.95996 -0.46666,-7.55255 -0.45167,-0.59218 -1.50752,-0.86148 -2.71055,-0.69136 -1.37583,0.19457 -2.27394,0.87961 -2.66184,2.03035 -0.19603,0.58152 -0.19803,0.63973 -0.2229,6.49581 -0.0174,4.113656 -0.0552,5.983976 -0.12421,6.155716 -0.19037,0.47381 -0.36723,0.50325 -3.00235,0.49984 -1.82881,-0.002 -2.45836,-0.0312 -2.61846,-0.11996 z M 21.739311,74.402474 c -0.31063,-0.0612 -1.01925,-0.33882 -1.63477,-0.64041 -1.03725,-0.50823 -1.13424,-0.57985 -2.14162,-1.5815 -0.98392,-0.97833 -1.19442,-1.25087 -2.29512,-2.97152 -0.1731,-0.2706 -0.27303,-0.45782 -0.90941,-1.70385 -0.15179,-0.29719 -0.27724,-0.61469 -0.27878,-0.70555 -0.002,-0.0909 -0.0601,-0.24085 -0.13004,-0.33332 -0.07,-0.0925 -0.19142,-0.38892 -0.26988,-0.6588 -0.0785,-0.26988 -0.21264,-0.63079 -0.29819,-0.80202 -0.0855,-0.17124 -0.2252,-0.62884 -0.31034,-1.01689 -0.0851,-0.38806 -0.2445,-1.06275 -0.35415,-1.49931 -0.10964,-0.43656 -0.24157,-1.01203 -0.29317,-1.27882 -0.0516,-0.26679 -0.14191,-0.70335 -0.20068,-0.97014 -0.17901,-0.81253 -0.25492,-1.53954 -0.39597,-3.79236 -0.20864,-3.33243 -0.12288,-4.76813 0.4402,-7.36987 0.4991,-2.306052 2.15106,-4.899337 3.7112,-5.825907 0.29104,-0.17285 0.61428,-0.39296 0.71829,-0.489135 0.10402,-0.09617 0.49845,-0.2541 0.87651,-0.35095 0.37806,-0.09686 0.78905,-0.226095 0.91331,-0.287215 0.12426,-0.06112 0.54342,-0.157875 0.93148,-0.215025 1.34353,-0.197865 3.61984,-0.54054 4.49791,-0.677115 0.48507,-0.07545 2.07257,-0.314315 3.52778,-0.53082 1.45521,-0.2165 2.73497,-0.407925 2.84392,-0.42539 0.33924,-0.05439 2.48516,0.54573 3.14461,0.8794 0.34433,0.17422 0.83762,0.47522 1.0962,0.66888 0.80618,0.603795 1.97683,1.84484 2.52118,2.6728 0.28702,0.436565 0.69381,1.05377 0.90398,1.37157 0.21017,0.317805 0.38101,0.61546 0.37964,0.66146 -10e-4,0.046 0.11486,0.32176 0.25829,0.612805 0.35675,0.723925 0.84839,1.944932 0.97656,2.425342 0.0582,0.21828 0.18084,0.55563 0.27245,0.74966 0.0916,0.19402 0.26887,0.80918 0.3939,1.36701 0.12504,0.55783 0.28628,1.27221 0.35833,1.5875 0.0721,0.3153 0.16964,0.82589 0.21688,1.13465 0.0473,0.30877 0.11168,0.60314 0.14322,0.65416 0.0565,0.0914 0.12343,0.57126 0.29803,2.13584 0.0487,0.43657 0.0974,1.905 0.10806,3.2632 0.0204,2.58105 -0.0548,3.5187 -0.38493,4.80115 -0.0929,0.36082 -0.16886,0.72819 -0.16886,0.81639 0,0.19897 -0.53831,1.6229 -0.86038,2.27586 -0.66975,1.35786 -1.86652,2.76379 -2.85114,3.34944 -0.31935,0.18994 -0.62913,0.4038 -0.68842,0.47523 -0.20057,0.24167 -1.5339,0.57482 -3.05249,0.76272 -0.43656,0.054 -1.28984,0.17672 -1.89618,0.27267 -2.59837,0.41122 -3.27175,0.51652 -4.18924,0.65516 -0.53357,0.0806 -1.4067,0.22548 -1.94028,0.3219 -1.91998,0.34695 -3.00692,0.4045 -3.98789,0.21112 z m 2.8354,-1.78402 c 0.86262,-0.14244 0.85374,-0.13902 1.55065,-0.59821 0.96021,-0.63268 1.79755,-1.57539 2.35539,-2.65177 0.65702,-1.26775 0.91391,-2.11532 1.22964,-4.05695 0.17151,-1.05473 0.1896,-4.99192 0.0288,-6.2618 -0.20225,-1.59693 -0.24364,-1.86925 -0.42224,-2.77813 -0.33954,-1.72779 -0.79969,-3.56985 -1.02447,-4.10104 -0.12315,-0.29104 -0.22486,-0.57831 -0.22601,-0.63838 -0.004,-0.20481 -0.97944,-2.49684 -1.24854,-2.9335 -0.0448,-0.0728 -0.14984,-0.24621 -0.23334,-0.38544 -1.09789,-1.830797 -2.36364,-3.204252 -3.57224,-3.876222 -0.75714,-0.42096 -1.95063,-0.70855 -2.70086,-0.65081 -0.83305,0.06412 -2.1314,0.385155 -2.38947,0.59085 -0.12127,0.09665 -0.36216,0.25243 -0.53531,0.346175 -0.39977,0.216435 -1.26548,1.07127 -1.63675,1.6162 -1.01641,1.4918 -1.64988,3.493867 -1.88271,5.950237 -0.0996,1.051 0.0212,5.29583 0.17267,6.06631 0.0477,0.24253 0.10239,0.59972 0.12157,0.79375 0.055,0.5562 0.3101,1.86689 0.53215,2.73402 0.11179,0.43657 0.27315,1.11125 0.35857,1.49931 0.0854,0.38806 0.25013,0.93638 0.36603,1.21849 0.1159,0.28211 0.21072,0.56393 0.21072,0.62627 0,0.0623 0.0942,0.29058 0.20942,0.5072 0.11518,0.21662 0.23855,0.49042 0.27416,0.60845 0.0844,0.27962 0.77119,1.66769 1.13168,2.28716 0.6074,1.04375 0.95909,1.49765 1.83774,2.37183 0.75481,0.75097 1.04672,0.97565 1.68807,1.29932 1.3444,0.67845 1.87053,0.73607 3.8047,0.41668 z m -1.89078,-2.58273 c -0.54356,-0.16535 -1.42667,-0.75039 -1.90108,-1.25943 -0.67619,-0.72557 -1.77854,-2.59545 -2.27654,-3.86164 -0.60138,-1.529 -1.46575,-4.885 -1.63551,-6.35 -0.31972,-2.75912 -0.37912,-3.69567 -0.32162,-5.07118 0.0324,-0.77611 0.093,-1.58971 0.13463,-1.80799 0.0416,-0.21828 0.12004,-0.64634 0.17428,-0.95124 0.28327,-1.59214 1.0102,-3.041397 1.82891,-3.646212 1.26682,-0.93585 2.19247,-0.88602 3.64809,0.19639 0.33769,0.25111 0.61399,0.48326 0.61399,0.51589 0,0.03265 0.11153,0.176 0.24784,0.318602 0.13632,0.1426 0.35074,0.39818 0.47651,0.56796 0.30275,0.40871 1.56871,2.92566 1.56871,3.11889 0,0.0832 0.0858,0.31842 0.19067,0.52264 0.25198,0.49071 0.84644,2.70163 1.17878,4.38416 0.45467,2.30186 0.62293,6.39639 0.3448,8.3905 -0.24521,1.75806 -1.01976,3.5865 -1.77149,4.18188 -0.87671,0.69436 -1.78755,0.96779 -2.50097,0.75078 z m 1.25541,-1.92402 c 0.38406,-0.2975 0.87351,-1.23536 1.11616,-2.13872 0.34755,-1.29393 0.40537,-2.24689 0.28708,-4.73158 -0.11779,-2.47441 -0.16543,-2.95145 -0.43458,-4.35245 -0.7862,-4.09231 -2.31688,-7.42241 -3.8972,-8.47861 -1.11244,-0.743487 -2.01033,0.30994 -2.55289,2.99514 -0.15862,0.78501 -0.29209,2.56198 -0.2423,3.22576 0.13023,1.73602 0.23487,2.9109 0.32676,3.66882 0.17969,1.48218 1.04186,4.79584 1.50454,5.78253 0.0925,0.19722 0.16814,0.41215 0.16814,0.47763 0,0.14854 0.86441,1.775 1.24967,2.35137 0.31788,0.47557 0.65096,0.81579 1.16686,1.19189 0.45589,0.33234 0.88583,0.33505 1.30776,0.008 z m 6.62365,3.60051 c 0.88132,-0.1419 2.2771,-0.3627 3.10171,-0.49068 1.90629,-0.29585 1.96455,-0.31239 2.62427,-0.74525 1.0233,-0.67142 1.85039,-1.59172 2.42234,-2.69531 0.65702,-1.26775 0.91391,-2.11532 1.22963,-4.05695 0.17151,-1.05473 0.18961,-4.99192 0.0288,-6.2618 -0.20224,-1.59693 -0.24363,-1.86925 -0.42224,-2.77813 -0.33953,-1.72779 -0.79969,-3.56985 -1.02446,-4.10104 -0.12316,-0.29104 -0.22486,-0.57831 -0.22601,-0.63838 -0.004,-0.20481 -0.97945,-2.496837 -1.24854,-2.933497 -0.0448,-0.07276 -0.14984,-0.24621 -0.23334,-0.385445 -1.09789,-1.830795 -2.36364,-3.20425 -3.57225,-3.876225 -0.89888,-0.499765 -2.71898,-0.84978 -3.37145,-0.648345 -0.0965,0.0298 -0.87001,0.15401 -1.71888,0.276035 -2.51368,0.36134 -3.91031,0.5774 -3.94287,0.609955 -0.0168,0.0168 0.19198,0.198575 0.46398,0.40393 0.83601,0.631195 1.99748,1.860415 2.54556,2.694055 0.28702,0.436565 0.69381,1.05377 0.90398,1.37157 0.21017,0.317805 0.38101,0.615457 0.37964,0.661457 -10e-4,0.046 0.11486,0.32176 0.25829,0.61281 0.35676,0.72392 0.8484,1.94493 0.97657,2.42534 0.0582,0.21828 0.18084,0.55563 0.27245,0.74966 0.0916,0.19402 0.26886,0.80918 0.3939,1.36701 0.12503,0.55783 0.28628,1.27221 0.35833,1.5875 0.072,0.3153 0.16964,0.82589 0.21687,1.13465 0.0472,0.30877 0.11169,0.60314 0.14322,0.65416 0.0565,0.0914 0.12344,0.57126 0.29804,2.13584 0.0487,0.43657 0.0973,1.905 0.10805,3.2632 0.0204,2.58105 -0.0548,3.5187 -0.38492,4.80115 -0.0929,0.36082 -0.16887,0.72819 -0.16887,0.81639 0,0.19897 -0.53831,1.6229 -0.86038,2.27586 -0.13159,0.26679 -0.44096,0.78273 -0.68748,1.14653 -0.55728,0.82239 -0.59258,0.88194 -0.52277,0.88194 0.031,0 0.77752,-0.1161 1.65885,-0.25799 z m 58.9288,1.24072 c -0.65445,-0.20256 -2.00945,-0.87808 -2.68162,-1.3369 -0.89532,-0.61114 -2.19881,-1.98437 -2.92936,-3.08609 -0.69815,-1.05286 -1.77477,-2.91155 -1.86422,-3.21842 -0.0283,-0.097 -0.17689,-0.47404 -0.33024,-0.83784 -0.3539,-0.83956 -0.84069,-2.24487 -1.05396,-3.04271 -0.39748,-1.48691 -0.7134,-2.87419 -0.80338,-3.52778 -0.0534,-0.38806 -0.13551,-0.94368 -0.18242,-1.23472 -0.11197,-0.69471 -0.23431,-3.67913 -0.24475,-5.97066 -0.009,-1.88123 0.13312,-3.440797 0.39902,-4.392192 0.0746,-0.266785 0.17548,-0.683505 0.22426,-0.92604 0.19428,-0.966075 1.12082,-2.93128 1.99296,-4.227075 0.69524,-1.032965 2.23205,-2.44071 2.90789,-2.663685 0.1822,-0.06011 1.37787,-0.60951 1.6996,-0.780945 0.12132,-0.06465 0.73648,-0.220035 1.36701,-0.345305 0.63054,-0.12527 2.15846,-0.427005 3.39539,-0.67052 1.23693,-0.24352 2.40904,-0.501805 2.60469,-0.57397 0.19565,-0.07216 0.4463,-0.13121 0.55701,-0.13121 0.11071,0 0.28538,-0.045 0.38816,-0.10001 0.3001,-0.16061 2.80286,-0.117835 3.59509,0.06144 0.84318,0.190805 2.788909,1.15465 3.436679,1.702405 1.07335,0.907625 2.00261,1.95291 2.75473,3.098665 0.58844,0.89641 1.7517,3.204745 2.11111,4.189235 0.57203,1.566855 1.21455,3.828607 1.47824,5.203477 0.0558,0.29104 0.15795,0.78713 0.22697,1.10243 0.2243,1.02457 0.29937,2.10831 0.36154,5.21958 0.0648,3.24331 0.0133,4.16378 -0.33453,5.98111 -0.24689,1.28988 -0.60778,2.33959 -1.22058,3.55023 -0.88565,1.74971 -1.8085,2.949 -2.9239,3.79975 -0.71219,0.54321 -2.07325,1.18807 -2.82137,1.33675 -0.93554,0.18593 -4.483989,0.94023 -5.794949,1.23185 -0.55279,0.12296 -1.0594,0.26866 -1.12579,0.32375 -0.27055,0.22455 -1.18415,0.34672 -2.89622,0.38734 -1.5466,0.0367 -1.82908,0.0217 -2.29306,-0.12194 z m 3.63308,-1.65419 c 0.38902,-0.0296 0.67468,-0.0967 0.73841,-0.17345 0.0572,-0.0689 0.16272,-0.12523 0.23457,-0.12523 0.28281,0 1.33097,-0.64441 1.83941,-1.13087 0.73336,-0.70166 1.15562,-1.28601 1.82766,-2.5292 0.81826,-1.51371 1.24218,-3.00827 1.46338,-5.15937 0.10761,-1.04645 -0.0153,-7.34351 -0.15656,-8.0257 -0.0452,-0.21828 -0.14812,-0.75406 -0.22864,-1.19062 -0.31019,-1.68153 -0.81502,-3.53023 -1.49318,-5.468057 -0.49606,-1.41745 -2.08889,-4.359985 -2.54492,-4.70138 -0.0852,-0.06376 -0.2114,-0.222655 -0.28053,-0.353105 -0.11686,-0.220525 -0.66089,-0.78444 -1.5049,-1.559895 -0.44323,-0.40723 -2.22801,-1.312045 -2.84861,-1.44413 -0.59823,-0.12733 -2.18746,-0.128195 -2.87872,-0.0015 -0.47322,0.08668 -0.98339,0.28996 -1.97525,0.78704 -0.4367,0.218855 -1.51845,1.314465 -1.97362,1.998895 -0.7361,1.106885 -1.53733,2.835755 -1.66138,3.584905 -0.0414,0.249985 -0.15198,0.73233 -0.24575,1.07188 -0.0938,0.33955 -0.21318,1.014235 -0.26535,1.499307 -0.10992,1.02205 -0.0542,6.47824 0.0751,7.36423 0.0461,0.3153 0.14651,1.02967 0.22325,1.5875 0.0767,0.55783 0.20032,1.23119 0.27463,1.49636 0.0743,0.26516 0.21358,0.82079 0.30952,1.23472 0.29413,1.26913 0.31446,1.33921 0.69142,2.3842 0.20123,0.55783 0.39949,1.12212 0.44059,1.25398 0.0411,0.13186 0.13739,0.3292 0.21398,0.43854 0.0766,0.10935 0.13925,0.25728 0.13925,0.32873 0,0.18026 1.05339,2.06806 1.72278,3.0874 0.64984,0.98958 1.49866,1.88735 2.51775,2.66294 0.36656,0.27899 1.66389,0.93975 2.15315,1.09666 0.3461,0.11101 1.61534,0.10516 3.19252,-0.0147 z m -2.39836,-2.71206 c -0.8528,-0.28449 -1.66728,-0.90648 -2.74094,-2.09314 -0.31256,-0.34546 -1.00732,-1.36378 -1.00732,-1.47643 0,-0.0418 -0.11834,-0.25057 -0.26298,-0.46402 -0.14464,-0.21345 -0.2637,-0.44346 -0.26458,-0.51114 -0.001,-0.0677 -0.17299,-0.46455 -0.38246,-0.88195 -0.20947,-0.41739 -0.43299,-0.95733 -0.49671,-1.19987 -0.0637,-0.24253 -0.20623,-0.65925 -0.31669,-0.92604 -0.25994,-0.62778 -0.48144,-1.35306 -0.48144,-1.5764 0,-0.0969 -0.12299,-0.68479 -0.27331,-1.30635 -0.37928,-1.56825 -0.51037,-2.70044 -0.62612,-5.40753 -0.0764,-1.78619 -0.0752,-2.56089 0.005,-3.28624 0.12277,-1.11056 0.41752,-2.641877 0.58124,-3.019657 0.0631,-0.145525 0.16279,-0.44318 0.22163,-0.66146 0.1272,-0.471935 0.59272,-1.33933 1.11339,-2.07456 0.40979,-0.578655 1.37655,-1.311005 1.95454,-1.480625 0.18202,-0.05342 0.65124,-0.09666 1.04271,-0.09609 0.65721,10e-4 0.76892,0.02935 1.45728,0.370335 0.41003,0.20312 0.87678,0.508485 1.03723,0.678595 0.16045,0.170105 0.32694,0.309285 0.36998,0.309285 0.043,0 0.24533,0.2282 0.44954,0.507115 0.20422,0.278915 0.52225,0.680565 0.70674,0.89255 0.40152,0.461355 1.24476,2.088185 1.84963,3.568442 0.69341,1.69692 1.31928,4.20349 1.66686,6.67567 0.25617,1.82206 0.28962,5.88667 0.0594,7.22069 -0.52074,3.01766 -1.66612,5.19131 -3.15576,5.98888 -0.41048,0.21978 -0.62915,0.27192 -1.32292,0.31545 -0.58278,0.0366 -0.93657,0.017 -1.18393,-0.0655 z m 1.71979,-1.77912 c 0.65188,-0.33964 1.60872,-1.86277 1.85399,-2.95125 0.0601,-0.26678 0.15995,-0.66366 0.22184,-0.88194 0.27789,-0.98003 0.34512,-1.82289 0.32358,-4.05695 -0.0119,-1.23692 -0.0583,-2.44739 -0.10309,-2.68993 -0.0448,-0.24253 -0.12628,-0.83784 -0.18112,-1.32291 -0.11047,-0.97709 -0.23215,-1.5681 -0.67183,-3.2632 -0.16356,-0.63059 -0.29727,-1.20715 -0.29711,-1.28124 1.7e-4,-0.0741 -0.0644,-0.22701 -0.14339,-0.33982 -0.079,-0.1128 -0.1962,-0.36968 -0.26042,-0.57084 -0.40587,-1.27119 -1.31047,-3.080367 -1.87577,-3.751457 -0.89803,-1.066095 -1.65314,-1.706785 -2.18448,-1.8535 -0.3333,-0.09203 -0.96179,0.04325 -1.405,0.302405 -0.94164,0.550605 -1.84152,2.805855 -2.14582,5.377792 -0.1586,1.3405 0.12855,7.03532 0.37484,7.43383 0.0229,0.0371 0.14558,0.54254 0.27265,1.12335 0.30657,1.40121 0.43306,1.86695 0.77787,2.864 0.38031,1.09973 1.33959,3.1381 1.76398,3.74826 0.6351,0.91311 1.48832,1.76042 2.10511,2.09049 0.40693,0.21777 0.53233,0.24458 0.91272,0.19512 0.24253,-0.0315 0.54019,-0.10902 0.66145,-0.17221 z m 6.57049,3.22303 c 0.29104,-0.0899 0.985569,-0.26932 1.543399,-0.39879 1.88817,-0.43824 3.18508,-1.24116 4.21057,-2.60675 0.54527,-0.72611 1.47643,-2.50823 1.7248,-3.30103 0.29196,-0.93194 0.55279,-2.25334 0.67024,-3.39548 0.10761,-1.04646 -0.0153,-7.34351 -0.15656,-8.0257 -0.0452,-0.21828 -0.14812,-0.75406 -0.22864,-1.19062 -0.31019,-1.68153 -0.81502,-3.530237 -1.49318,-5.468057 -0.49606,-1.41745 -2.08889,-4.35999 -2.54492,-4.701385 -0.0852,-0.06376 -0.2114,-0.222655 -0.28053,-0.3531 -0.11686,-0.220525 -0.66089,-0.78444 -1.5049,-1.5599 -0.44323,-0.40723 -2.228009,-1.31204 -2.848609,-1.44413 -0.68554,-0.14591 -1.59645,-0.12175 -2.5615,0.06793 -0.80353,0.15794 -1.45323,0.26198 -1.95413,0.312925 -0.2483,0.02525 -1.18795,0.211175 -1.45173,0.287235 -0.13033,0.0376 0.0255,0.15009 0.63291,0.45695 0.84509,0.42692 1.91999,1.277275 2.53861,2.0083 0.19403,0.22928 0.49537,0.57796 0.66965,0.774845 0.79473,0.89783 2.32384,3.67573 2.91567,5.296855 0.57203,1.566852 1.214549,3.828602 1.478239,5.203472 0.0558,0.29104 0.15795,0.78714 0.22697,1.10243 0.2243,1.02457 0.29937,2.10832 0.36154,5.21959 0.0648,3.2433 0.0133,4.16377 -0.33453,5.98111 -0.34764,1.81618 -1.155509,3.73059 -2.236769,5.30044 l -0.49146,0.71353 0.29284,-0.0586 c 0.16107,-0.0322 0.53098,-0.13216 0.82202,-0.22203 z m 15.422349,-2.24206 c -0.29746,-0.0685 -0.69433,-0.22246 -0.88194,-0.34214 -0.99849,-0.63693 -1.1654,-1.20036 -1.53381,-5.17758 -0.0966,-1.0429 -0.27865,-2.90821 -0.40454,-4.14514 -0.28717,-2.82157 -0.26124,-3.44139 0.18254,-4.36404 0.4627,-0.962 1.05066,-1.36859 1.97909,-1.36859 0.4084,0 1.09857,0.30985 1.3759,0.61771 0.097,0.10769 0.4037,0.39295 0.68153,0.63391 l 0.50514,0.4381 2.0084,-0.23298 c 1.10462,-0.12815 2.62356,-0.30724 3.37541,-0.39798 2.40974,-0.29084 2.41292,-0.29101 2.77201,-0.14096 0.18181,0.076 0.44575,0.23504 0.58653,0.35349 0.34624,0.29135 2.08409,1.21121 2.92114,1.54619 1.56712,0.62716 4.1244,1.15127 5.61737,1.15127 0.52907,0 0.57191,0.0163 0.86745,0.33073 0.17099,0.1819 0.63722,0.89042 1.03606,1.5745 0.39886,0.68408 0.84823,1.42263 0.99862,1.64122 l 0.27344,0.39743 0.86421,-0.16709 c 1.59572,-0.30852 3.14754,-0.60569 4.52429,-0.86638 0.75185,-0.14236 1.90279,-0.36172 2.55763,-0.48745 2.1346,-0.40985 3.90269,-0.74666 5.07118,-0.96604 1.35075,-0.2536 2.48156,-0.46996 6.96737,-1.33305 0.63059,-0.12133 1.64262,-0.31534 2.24895,-0.43111 0.60634,-0.11578 1.63822,-0.31377 2.29306,-0.43997 0.65484,-0.12621 1.38906,-0.26506 1.6316,-0.30856 0.24253,-0.0435 2.74013,-0.51828 5.55021,-1.05506 2.81007,-0.53679 5.15015,-0.97598 5.20015,-0.97598 0.05,0 -0.0961,-0.18988 -0.32469,-0.42195 -0.35674,-0.3622 -0.4156,-0.47228 -0.4156,-0.77726 0,-0.78025 0.92115,-1.1288 1.46075,-0.55272 0.37949,0.40515 1.50323,1.12008 1.86816,1.18854 0.31222,0.0586 0.87697,-0.0358 3.24157,-0.54176 0.58209,-0.12454 1.25677,-0.26118 1.49931,-0.30362 0.24253,-0.0425 0.56003,-0.099 0.70555,-0.12556 0.47188,-0.0863 4.48274,-0.92169 5.01021,-1.04354 l 0.51228,-0.11834 -1.48242,-1.40048 c -0.81533,-0.77027 -2.24129,-2.128152 -3.16877,-3.017522 -0.92749,-0.88937 -1.75633,-1.61704 -1.84186,-1.61704 -0.0855,0 -0.29901,0.0371 -0.47441,0.08239 -0.1754,0.0453 -0.59673,0.1234 -0.93628,0.173525 -0.33954,0.05012 -1.41903,0.231325 -2.39885,0.402675 -2.20575,0.38574 -2.53226,0.394235 -2.86594,0.07456 -0.3468,-0.332255 -0.34898,-0.870785 -0.005,-1.18895 0.20092,-0.18574 0.41655,-0.25047 1.25677,-0.37726 0.55783,-0.08418 1.15314,-0.184395 1.32292,-0.2227 0.16977,-0.0383 0.60633,-0.11737 0.97014,-0.17569 1.14355,-0.183325 1.08298,-0.157905 1.01511,-0.426035 -0.16224,-0.640955 -0.20474,-1.173765 -0.11886,-1.489805 0.20608,-0.758345 0.71663,-0.99944 2.16902,-1.024255 0.99111,-0.01695 1.05858,-0.0063 1.56494,0.2464 0.36522,0.182275 0.85705,0.58171 1.5875,1.28928 0.58208,0.56385 1.42832,1.352935 1.88054,1.753525 0.45221,0.40059 1.18643,1.101895 1.6316,1.55846 0.44516,0.45656 0.93313,0.907925 1.08437,1.003035 0.39399,0.24775 1.00769,0.231825 1.3278,-0.03445 0.39352,-0.32736 0.55618,-0.38837 1.57957,-0.592485 2.27369,-0.45349 4.02836,0.0156 4.88267,1.305415 0.34311,0.518 1.76494,4.793087 1.83307,5.511597 0.0278,0.29322 0.001,0.67269 -0.0641,0.90488 -0.14347,0.5124 -0.67415,1.11449 -1.21122,1.37418 -0.41587,0.20107 -0.47058,0.20412 -4.74225,0.2642 l -4.32153,0.0608 -1.45521,0.28022 c -1.83136,0.35266 -3.90536,0.7444 -7.27604,1.3743 -3.6623,0.68441 -5.63425,1.05406 -7.54062,1.41352 -0.89738,0.16921 -2.14754,0.40394 -2.77813,0.52162 -0.63059,0.11768 -1.90059,0.35671 -2.82222,0.53117 -0.92163,0.17447 -3.14413,0.5916 -4.93889,0.92695 -1.79476,0.33536 -4.01726,0.75224 -4.93889,0.9264 -0.92163,0.17416 -2.60835,0.49092 -3.74826,0.70392 -1.13992,0.21299 -3.14414,0.5908 -4.45382,0.83957 -1.30969,0.24877 -2.91704,0.54965 -3.57188,0.66864 -0.65484,0.11898 -1.46844,0.27246 -1.80799,0.34105 -0.33954,0.0686 -0.9547,0.18686 -1.36701,0.26279 -0.93944,0.17301 -4.98334,0.9321 -7.14375,1.34097 -0.89738,0.16982 -1.80013,0.33127 -2.00611,0.35876 -0.34634,0.0463 -0.38144,0.0757 -0.46672,0.3925 -0.0507,0.18837 -0.21009,0.47673 -0.35414,0.64079 -0.44624,0.50824 -0.85051,0.63548 -2.3765,0.74792 -3.79623,0.27977 -8.76502,0.53373 -11.42118,0.58377 -1.78518,0.0336 -2.41284,0.0156 -2.8339,-0.0813 z m 8.96342,-1.90158 c 1.81901,-0.10149 3.98198,-0.23278 4.8066,-0.29178 l 1.4993,-0.10726 0.0269,-0.41937 c 0.036,-0.56092 -0.38093,-3.6797 -0.61979,-4.63647 -0.13351,-0.53479 -0.36728,-0.66402 -1.20149,-0.66415 -1.24272,0 -3.99701,0.61581 -4.49111,1.00446 -0.27033,0.21264 -0.94252,0.2328 -1.39924,0.042 -0.17317,-0.0724 -0.49049,-0.30972 -0.70517,-0.52748 -0.31332,-0.31782 -2.61167,-2.16866 -3.72393,-2.99886 -0.72512,-0.54123 -2.61042,-2.09555 -3.12341,-2.57508 -0.32834,-0.3069 -0.67458,-0.55801 -0.76944,-0.55801 -0.2,0 -0.39665,0.33571 -0.5241,0.89473 -0.0662,0.29048 -0.0353,0.89994 0.12694,2.50076 0.11798,1.16416 0.29566,3.00963 0.39486,4.10104 0.21679,2.38516 0.40289,3.78497 0.54453,4.09584 0.0596,0.13089 0.2027,0.25131 0.33217,0.27961 0.12508,0.0274 0.26711,0.066 0.31561,0.0858 0.20497,0.084 5.4542,-0.0553 8.51077,-0.2258 z m 10.05416,-2.38857 c 1.0429,-0.19587 2.6304,-0.49457 3.52778,-0.66378 0.89738,-0.16922 3.11988,-0.5859 4.93889,-0.92596 4.35783,-0.8147 6.13421,-1.14867 8.15799,-1.53372 0.92163,-0.17536 2.19163,-0.41389 2.82222,-0.53009 0.63059,-0.11618 1.90059,-0.35415 2.82222,-0.52881 2.1195,-0.40167 5.56421,-1.04752 7.05556,-1.32286 1.24104,-0.22912 3.8121,-0.71526 5.64444,-1.06728 0.63059,-0.12114 1.66247,-0.31525 2.29306,-0.43136 0.63059,-0.11611 2.11887,-0.3946 3.30729,-0.61887 3.60281,-0.67989 5.36794,-1.0111 6.57049,-1.23288 0.63059,-0.11628 2.11887,-0.39551 3.30729,-0.62047 4.05961,-0.76849 3.60544,-0.72463 8.04061,-0.77654 2.6898,-0.0315 4.08837,-0.0796 4.21024,-0.14479 0.31279,-0.16741 0.30142,-0.44866 -0.0664,-1.64317 -0.56345,-1.82972 -1.1274,-3.457492 -1.27693,-3.685717 -0.20854,-0.31828 -0.84837,-0.58713 -1.53001,-0.64291 -0.83481,-0.06831 -2.00523,0.144875 -2.4491,0.446095 -0.47366,0.32143 -1.22589,0.537132 -1.85721,0.532552 -0.89072,-0.006 -1.38249,-0.308912 -2.86632,-1.762922 -0.70335,-0.689215 -1.71538,-1.637705 -2.24896,-2.107755 -0.53357,-0.470055 -1.18269,-1.09106 -1.44248,-1.380015 -0.25979,-0.288955 -0.58524,-0.58375 -0.72322,-0.655105 -0.27119,-0.14024 -1.40617,-0.182665 -1.40617,-0.05257 0,0.04245 0.0254,0.20415 0.0564,0.359355 0.0562,0.2807 0.0587,0.28188 0.47589,0.224495 0.30776,-0.0423 0.49452,-0.0189 0.70137,0.08809 0.15505,0.08019 0.90351,0.748105 1.66325,1.48427 0.75974,0.73617 1.6788,1.613305 2.04237,1.9492 1.67367,1.546255 4.35802,4.266387 4.4678,4.527357 0.14749,0.35066 0.0836,0.64547 -0.19703,0.90911 -0.19779,0.18581 -0.84572,0.35877 -2.94828,0.78699 -1.24945,0.25447 -3.85959,0.81211 -4.54201,0.97038 -0.83575,0.19382 -5.65805,1.17484 -6.26181,1.27385 -0.43639,0.0716 -2.36543,0.42927 -3.83646,0.7114 -1.93604,0.3713 -5.20009,0.98777 -6.74687,1.27426 -1.87952,0.34813 -4.55494,0.85206 -5.42396,1.02163 -1.61783,0.31571 -2.09386,0.40633 -3.88056,0.73874 -1.04289,0.19401 -2.41211,0.45489 -3.0427,0.57971 -1.6061,0.3179 -3.79782,0.74341 -4.32153,0.83899 -1.6007,0.29214 -2.34924,0.43363 -6.35,1.20023 -3.23325,0.61954 -5.3868,1.02726 -8.55486,1.61965 -2.36357,0.44195 -2.24896,0.40818 -2.24896,0.6628 0,0.24201 0.0826,0.48673 0.16378,0.48544 0.0312,-10e-4 0.90999,-0.16116 1.95288,-0.35703 z m -0.44097,-2.47375 c 1.0429,-0.19938 1.90953,-0.37485 1.92583,-0.38991 0.0163,-0.0151 -0.32104,-0.60497 -0.74966,-1.3109 -0.76604,-1.26167 -0.7846,-1.28355 -1.09163,-1.28592 -0.61664,-0.005 -2.439,-0.27625 -3.33341,-0.49659 -1.76869,-0.43571 -3.78458,-1.28912 -5.17945,-2.19267 -0.71771,-0.46492 -0.73497,-0.46648 -2.56367,-0.23148 -0.72112,0.0927 -1.76754,0.21801 -2.32537,0.27852 -1.61054,0.17471 -1.57044,0.11639 -0.60861,0.885 0.45601,0.36441 1.34503,1.06315 1.97562,1.55277 0.6306,0.48963 1.23886,0.98922 1.35171,1.1102 l 0.20517,0.21997 0.53573,-0.20996 c 0.71045,-0.27841 2.09087,-0.61139 3.2869,-0.79283 2.88356,-0.43743 4.18075,0.28333 4.47556,2.48678 0.0544,0.40659 0.12146,0.73932 0.14901,0.7394 0.0275,8e-5 0.90337,-0.16299 1.94627,-0.36238 z m -57.635069,5.59377 c -5.55385,-0.28111 -10.44323,-0.52552 -15.47813,-0.77374 -3.98642,-0.19653 -9.52122,-0.47504 -12.95438,-0.65186 l -3.0325,-0.15618 -0.25274,-0.28287 c -0.15287,-0.17109 -0.25274,-0.38215 -0.25274,-0.53415 0,-0.2927 0.28863,-0.69604 0.57635,-0.80543 0.11878,-0.0452 1.48795,-0.009 3.36185,0.0888 1.7388,0.0907 4.47114,0.22896 6.07187,0.30713 1.60073,0.0782 4.43839,0.21937 6.3059,0.31376 1.86752,0.0944 4.6258,0.23241 6.12952,0.30673 1.50371,0.0743 3.90481,0.19305 5.33576,0.26384 1.43096,0.0708 3.11768,0.15365 3.74827,0.18412 1.35141,0.0653 1.67454,0.17084 1.85644,0.60619 0.18202,0.43563 -0.002,0.88203 -0.43933,1.06468 -0.16996,0.071 -0.34006,0.12161 -0.378,0.11244 -0.0379,-0.009 -0.3071,-0.0287 -0.59814,-0.0435 z m 61.664419,-8.30111 c -0.17663,-0.18436 -0.23699,-0.3374 -0.23699,-0.60086 0,-0.48232 0.31398,-0.76403 1.01424,-0.90999 0.29104,-0.0607 1.50151,-0.34655 2.68993,-0.6353 2.44587,-0.59427 3.85985,-0.93578 5.20347,-1.25678 1.07974,-0.25795 8.27628,-1.98745 9.5691,-2.29968 0.48507,-0.11715 1.57648,-0.37621 2.42535,-0.57569 0.84887,-0.19949 2.05934,-0.48429 2.68993,-0.63291 1.07889,-0.25427 1.56306,-0.36775 4.40972,-1.03352 2.73174,-0.6389 5.17266,-1.15217 5.90903,-1.24254 1.28263,-0.15742 1.98437,-0.27852 1.98437,-0.34245 0,-0.20659 -1.16167,-1.672572 -2.04075,-2.575347 -0.98742,-1.014025 -3.37098,-3.06458 -4.761,-4.09584 -0.13076,-0.09701 -0.70769,-0.530855 -1.28206,-0.96409 -1.33549,-1.007335 -1.72923,-1.2937 -2.8082,-2.042435 -0.48507,-0.3366 -1.04069,-0.72354 -1.23472,-0.859865 -0.43107,-0.30287 -1.62049,-1.08574 -3.2632,-2.14782 -1.32806,-0.85865 -4.98744,-3.055429 -5.99722,-3.600217 -0.33955,-0.183192 -0.65705,-0.362307 -0.70556,-0.398037 -0.19554,-0.144035 -2.52526,-1.37205 -4.16532,-2.19558 -3.71917,-1.867513 -5.98871,-2.8556 -9.63711,-4.195698 -1.63197,-0.599442 -4.26054,-1.383695 -5.64444,-1.684055 -1.72938,-0.375345 -2.26079,-0.470697 -4.13599,-0.742135 -5.33403,-0.772107 -5.64999,-0.844885 -8.60811,-1.982747 -3.279,-1.261295 -5.04237,-0.965135 -7.35931,1.236005 -0.90865,0.863242 -1.85919,1.676815 -2.99011,2.559275 -0.30792,0.240262 -0.72464,0.571975 -0.92605,0.737135 -0.39736,0.32584 -1.52825,1.175707 -1.9537,1.468205 -1.7815,1.22479 -2.3486,1.59699 -3.19356,2.095995 -1.32194,0.780682 -3.686449,1.943145 -5.096719,2.505687 -4.68872,1.870295 -9.43254,2.709632 -15.33078,2.712517 l -2.71897,10e-4 -0.25759,-0.28802 c -0.33232,-0.371594 -0.33721,-0.722877 -0.0151,-1.081957 l 0.24254,-0.270327 2.73402,-0.03485 c 4.12841,-0.05263 6.86579,-0.356768 9.98375,-1.10926 4.50446,-1.087108 8.3939,-2.898658 12.631409,-5.88322 1.69928,-1.196838 4.50482,-3.458338 5.60707,-4.519768 1.96747,-1.894612 3.36528,-2.555305 5.40621,-2.555305 1.1729,0 2.18382,0.223035 3.8089,0.840343 2.68065,1.018282 3.30253,1.168532 7.10086,1.715625 2.50101,0.360232 4.53328,0.691417 4.63731,0.755712 0.0313,0.01935 0.5444,0.13812 1.14014,0.263905 0.59575,0.125785 1.42469,0.340405 1.8421,0.476935 0.41741,0.136533 1.29471,0.415768 1.94955,0.620525 6.98338,2.183568 17.11696,7.351943 25.1833,12.844092 2.9217,1.989305 3.91299,2.705935 6.25739,4.52362 2.9636,2.29778 4.84155,4.04057 6.13945,5.697585 0.93314,1.191325 1.06065,1.433952 1.116,2.123532 0.0361,0.44982 0.0101,0.60506 -0.14859,0.88744 -0.37692,0.67064 -0.94639,0.89419 -2.88379,1.13207 -0.6246,0.0767 -1.27454,0.17594 -1.44431,0.22056 -0.16978,0.0446 -0.62618,0.14538 -1.01424,0.2239 -0.75461,0.15269 -8.49578,1.93271 -9.96597,2.2916 -0.48507,0.11841 -2.39007,0.57555 -4.23334,1.01586 -1.84326,0.44031 -3.84748,0.91961 -4.45382,1.0651 -0.60633,0.1455 -1.41993,0.34035 -1.80798,0.43299 -0.38806,0.0927 -2.92389,0.70567 -5.63517,1.36227 -2.71129,0.65661 -5.05535,1.19384 -5.20902,1.19384 -0.191,0 -0.35439,-0.0783 -0.51639,-0.24736 z M 46.320611,42.892172 c -0.33022,-0.12016 -0.61736,-0.50149 -0.61736,-0.81988 0,-0.497305 0.31176,-0.72267 1.5875,-1.14755 3.18082,-1.059365 5.92569,-2.430245 7.76658,-3.878905 1.10273,-0.86777 2.07266,-1.90925 2.83428,-3.043339 0.39091,-0.582083 0.83858,-1.217083 0.99481,-1.411113 1.15006,-1.42828 4.1996,-6.283645 6.1486,-9.789582 0.69227,-1.245278 2.18771,-4.054414 3.33346,-6.261807 2.05301,-3.955302 2.11278,-4.053217 4.29736,-7.0389251 1.22845,-1.67894 2.70788,-2.954341 4.40905,-3.800981 2.0858,-1.03806 3.83016,-1.587674 6.15509,-1.939355 1.84662,-0.279329 2.60973,-0.341191 4.27744,-0.346758 1.49451,-0.005 1.76362,0.01543 2.0544,0.155886 0.60754,0.293457 0.76959,0.943393 0.34185,1.371127 -0.29156,0.291559 -1.03872,0.431782 -1.45391,0.27286 -0.53874,-0.20622 -3.17088,-0.07365 -5.20596,0.262204 -3.87682,0.639797 -6.89987,2.149817 -8.69788,4.344605 -1.22557,1.4960281 -2.67655,3.6951671 -3.61872,5.4846151 -0.80047,1.520316 -1.36975,2.606471 -1.98764,3.792361 -0.81801,1.569953 -1.70576,3.219363 -2.46837,4.586113 -0.35185,0.63059 -0.74894,1.344965 -0.88241,1.5875 -1.23647,2.246735 -3.6862,6.050922 -5.54946,8.617757 -0.34201,0.471157 -0.85829,1.199767 -1.14728,1.619142 -0.8435,1.224025 -2.21685,2.522125 -3.88688,3.67389 -0.98906,0.682125 -3.54747,1.98581 -5.06327,2.580085 -1.14547,0.44908 -3.33299,1.201405 -3.44489,1.18475 -0.0242,-0.0035 -0.10363,-0.0282 -0.17639,-0.0547 z m 126.862169,-0.91371 -0.25904,-0.270215 -0.0606,-1.471625 c -0.0333,-0.809395 -0.0835,-1.61053 -0.11141,-1.780305 -0.028,-0.169775 -0.0908,-0.646025 -0.13963,-1.058335 -0.10631,-0.897385 -0.27007,-1.684955 -0.66934,-3.219097 -0.16412,-0.63059 -0.29827,-1.20715 -0.29812,-1.281242 0,-0.07409 -0.0644,-0.227013 -0.14339,-0.339818 -0.079,-0.112805 -0.19621,-0.369682 -0.26043,-0.57084 -0.40586,-1.271195 -1.31046,-3.08037 -1.87576,-3.75146 -0.89803,-1.066092 -1.65314,-1.706785 -2.18449,-1.853497 -0.3333,-0.09203 -0.96178,0.04324 -1.40499,0.302402 -1.10201,0.644378 -2.14612,3.670883 -2.19919,6.374635 -0.0208,1.057365 -0.0277,1.09167 -0.27032,1.344967 -0.339,0.353845 -0.84786,0.363545 -1.20338,0.02295 -0.2392,-0.229167 -0.24731,-0.266287 -0.24575,-1.124482 0.002,-1.257292 0.36535,-3.651865 0.65606,-4.327077 0.0627,-0.14552 0.16205,-0.443175 0.22088,-0.661458 0.12721,-0.471937 0.59272,-1.339332 1.1134,-2.07456 0.40979,-0.578652 1.37655,-1.311002 1.95455,-1.480625 0.18201,-0.05342 0.65122,-0.09666 1.0427,-0.09609 0.65721,10e-4 0.76892,0.02934 1.45728,0.370337 0.41003,0.20312 0.87679,0.508485 1.03723,0.678593 0.16045,0.170107 0.32694,0.309287 0.36998,0.309287 0.043,0 0.24533,0.228203 0.44954,0.507118 0.20421,0.278915 0.52225,0.680562 0.70675,0.89255 0.40151,0.461352 1.24475,2.088185 1.84962,3.568437 1.02313,2.50381 1.77176,6.244407 1.87564,9.371822 l 0.0472,1.419435 -0.24446,0.23421 c -0.3571,0.342125 -0.86242,0.32709 -1.21049,-0.036 z m 12.35098,-0.437195 -0.25526,-0.26644 -0.0664,-3.018805 c -0.0365,-1.66034 -0.10388,-3.197395 -0.1497,-3.415675 -0.0458,-0.218285 -0.14921,-0.754064 -0.22973,-1.190627 -0.31019,-1.681532 -0.81502,-3.530235 -1.49319,-5.468057 -0.49605,-1.41745 -2.08888,-4.359985 -2.54491,-4.701383 -0.0852,-0.06376 -0.2114,-0.222652 -0.28053,-0.353102 -0.11686,-0.220523 -0.66089,-0.784438 -1.5049,-1.559895 -0.44323,-0.40723 -2.22802,-1.312043 -2.84861,-1.444133 -0.68554,-0.145907 -1.59645,-0.12175 -2.5615,0.06793 -0.80354,0.157937 -1.45324,0.261977 -1.95413,0.312925 -0.2483,0.02526 -1.18795,0.21117 -1.45173,0.287232 -0.13034,0.03758 0.0255,0.150093 0.63292,0.456948 0.84507,0.426922 1.91998,1.27728 2.5386,2.008305 0.19403,0.22928 0.49537,0.57796 0.66965,0.774842 0.79473,0.89783 2.32384,3.67573 2.91567,5.296858 0.57064,1.563067 1.21043,3.813945 1.47904,5.203474 0.0563,0.29104 0.16095,0.806975 0.23266,1.146525 0.19377,0.91759 0.30333,2.00183 0.30333,3.001845 0,0.85978 -0.008,0.897805 -0.24736,1.126795 -0.34974,0.335075 -0.86468,0.33059 -1.19135,-0.0104 -0.2207,-0.230365 -0.23712,-0.30156 -0.2389,-1.036285 -0.005,-2.02993 -0.75201,-5.487699 -1.88545,-8.726424 -0.49605,-1.41745 -2.08888,-4.359988 -2.54491,-4.701383 -0.0852,-0.06376 -0.2114,-0.222655 -0.28053,-0.353102 -0.11686,-0.220525 -0.66089,-0.78444 -1.5049,-1.559898 -0.44323,-0.40723 -2.22802,-1.312042 -2.84861,-1.44413 -0.59824,-0.127327 -2.18746,-0.128195 -2.87872,-0.0015 -0.47323,0.08668 -0.9834,0.28996 -1.97526,0.78704 -0.43669,0.218855 -1.51844,1.314463 -1.97361,1.998895 -0.7361,1.106883 -1.53733,2.835755 -1.66138,3.584905 -0.0414,0.249988 -0.15236,0.73295 -0.24659,1.073255 -0.0942,0.340305 -0.19668,0.89593 -0.22767,1.234723 -0.10581,1.156685 -0.14642,1.36564 -0.26541,1.36564 -0.0639,0 -0.16549,0.05953 -0.22588,0.132292 -0.0656,0.07908 -0.25844,0.13229 -0.47937,0.13229 -0.29631,0 -0.42032,-0.05297 -0.62556,-0.267192 l -0.25599,-0.267193 0.15289,-1.210065 c 0.0841,-0.665535 0.21488,-1.428345 0.29068,-1.695132 0.0758,-0.266788 0.1776,-0.683508 0.22625,-0.926043 0.19359,-0.965067 1.12026,-2.93077 1.99274,-4.227075 0.69524,-1.032965 2.23205,-2.440707 2.90789,-2.663682 0.18219,-0.06011 1.37787,-0.609513 1.6996,-0.78095 0.12132,-0.06465 0.73647,-0.220033 1.36701,-0.345303 0.63054,-0.125267 2.15846,-0.427002 3.39539,-0.67052 1.23693,-0.24352 2.40903,-0.501804 2.60468,-0.573969 0.19565,-0.07216 0.44631,-0.13121 0.55702,-0.13121 0.1107,0 0.28538,-0.04501 0.38816,-0.100012 0.3001,-0.160609 2.80286,-0.117836 3.59509,0.06144 0.84318,0.190805 2.78891,1.15465 3.43668,1.702405 1.07334,0.907625 2.00261,1.95291 2.75473,3.098668 0.58844,0.896407 1.7517,3.204742 2.11111,4.189235 0.57203,1.566855 1.21455,3.828602 1.47823,5.203472 0.0558,0.291043 0.15811,0.787135 0.22731,1.10243 0.21248,0.968037 0.29885,2.139687 0.35975,4.879257 l 0.0585,2.630295 -0.24725,0.25807 c -0.35277,0.36822 -0.87286,0.364685 -1.23027,-0.0083 z M 51.242931,37.420032 c -0.12427,-0.133395 -0.24624,-0.341755 -0.27104,-0.46302 -0.0471,-0.23043 -0.29876,-0.91399 -0.99025,-2.689932 -0.22664,-0.582082 -0.5639,-1.455207 -0.74946,-1.940277 -0.18557,-0.48507 -0.4827,-1.258975 -0.66029,-1.719793 -0.46381,-1.203515 -0.94728,-2.463207 -1.35395,-3.527777 -1.49257,-3.907188 -1.93997,-5.036978 -2.03095,-5.12859 -0.0314,-0.03157 -0.57294,0.03432 -1.20353,0.146435 -0.6306,0.112112 -1.94028,0.329327 -2.91042,0.4827 -0.97014,0.15337 -3.07358,0.492612 -4.67431,0.753872 -1.60073,0.26126 -3.52557,0.573785 -4.27743,0.694503 -0.75186,0.120717 -2.49811,0.403097 -3.88055,0.62751 -1.38245,0.224412 -2.69214,0.43608 -2.91042,0.47037 l -0.39688,0.06235 0.004,0.394212 c 0.002,0.216818 0.0743,1.108588 0.16087,1.981713 0.2986,3.011197 0.1719,3.186032 -3.34399,4.61418 -2.16171,0.878085 -5.32451,2.027262 -5.77991,2.100082 -0.48886,0.07817 -1.05393,-0.269397 -1.30445,-0.802352 -0.29057,-0.618158 -0.83193,-4.033878 -1.41922,-8.954618 -0.71569,-5.996523 -0.804,-7.327872 -0.5217,-7.865222 0.1182,-0.22499 0.5822,-0.525638 0.94486,-0.612212 0.33061,-0.07893 0.98691,0.01659 4.37107,0.6362 l 1.40126,0.256555 3.09666,-0.438929 c 5.01621,-0.711011 6.85051,-0.968098 9.13798,-1.280737 1.18842,-0.162427 3.15295,-0.43657 4.36562,-0.609208 3.39489,-0.4833 5.88088,-0.831403 8.24619,-1.154681 1.18842,-0.162427 3.15295,-0.436577 4.36562,-0.609223 3.46666,-0.493542 5.7901,-0.818135 8.59896,-1.20131 1.43095,-0.195206 2.95892,-0.411176 3.39549,-0.479932 0.43656,-0.06876 1.42875,-0.208183 2.20486,-0.309834 2.1926,-0.287178 1.95893,-0.189413 2.00016,-0.83685 0.0276,-0.4340871 0.0877,-0.6233121 0.27603,-0.8702801 0.35432,-0.464537 0.62591,-0.509668 2.65716,-0.441557 1.74811,0.05862 1.75952,0.06029 1.95953,0.287221 0.30788,0.349295 0.28148,0.873339 -0.0605,1.2009681 l -0.26727,0.256054 -1.40931,-0.02389 -1.40931,-0.02389 0.0229,0.515815 c 0.026,0.586379 -0.12762,0.906829 -0.53626,1.118143 -0.13686,0.07077 -1.17828,0.252865 -2.31427,0.404645 -1.13599,0.151779 -2.44246,0.333573 -2.90328,0.403985 -0.46081,0.07041 -1.57206,0.227496 -2.46944,0.349074 -0.89738,0.121578 -2.88176,0.397953 -4.40972,0.614166 -4.5763,0.647565 -6.54617,0.923152 -8.81945,1.233851 -1.18842,0.162427 -3.15295,0.436571 -4.36562,0.609209 -3.61251,0.514281 -5.97344,0.844507 -7.9816,1.116392 -1.0429,0.141199 -2.57087,0.355885 -3.39549,0.47708 -1.41418,0.207845 -6.01779,0.840198 -6.11674,0.840198 -0.0252,0 0.056,0.109141 0.18044,0.242535 0.12441,0.133394 0.27349,0.334354 0.33128,0.446578 0.13804,0.268049 0.48147,2.052871 0.67962,3.532019 l 0.15787,1.178422 0.48759,-0.05693 c 0.26817,-0.03131 1.69805,-0.255135 3.17751,-0.497385 1.47946,-0.24225 3.16618,-0.51723 3.74826,-0.611068 0.58209,-0.09384 2.26881,-0.36915 3.74827,-0.611805 1.47946,-0.242657 3.34477,-0.54319 4.14514,-0.66785 0.80036,-0.12466 2.64583,-0.422195 4.10104,-0.661185 1.45521,-0.23899 3.3999,-0.554172 4.32153,-0.700405 0.92163,-0.146232 1.87413,-0.304627 2.11666,-0.351987 0.24254,-0.04736 0.97676,-0.168873 1.6316,-0.27002 0.65485,-0.10115 2.4011,-0.382274 3.88056,-0.624718 1.47946,-0.242445 3.9004,-0.638262 5.37986,-0.879593 1.47946,-0.24133 2.76158,-0.455027 2.84915,-0.474881 0.0908,-0.02058 0.28982,0.07857 0.46302,0.230642 0.25591,0.22469 0.3038,0.325261 0.3038,0.637977 0,0.292297 -0.0516,0.418513 -0.24253,0.593553 -0.2146,0.196701 -0.47117,0.259353 -2.22691,0.543787 -1.09141,0.17681 -3.31391,0.538793 -4.93889,0.804408 -1.62499,0.265615 -3.70858,0.603255 -4.63021,0.75031 -1.51215,0.241275 -2.3679,0.386685 -2.93069,0.497982 l -0.19667,0.03889 0.16833,0.417688 c 0.18367,0.455775 1.59341,3.8365 2.82207,6.76769 0.42699,1.018645 1.12182,2.683345 1.54408,3.69933 0.42227,1.015987 0.82411,1.927707 0.89299,2.026047 0.0689,0.09834 0.12524,0.341137 0.12524,0.539557 0,0.492825 -0.34681,0.83555 -0.84268,0.83276 -0.49926,-0.003 -0.7017,-0.208645 -1.03899,-1.056375 -0.31927,-0.802434 -0.79058,-1.936747 -2.45519,-5.909027 -0.57933,-1.38245 -1.33433,-3.18823 -1.67778,-4.01285 -1.08513,-2.60535 -1.23813,-2.956975 -1.3046,-2.998055 -0.0357,-0.02205 -0.31092,0.0032 -0.61161,0.0562 -0.45147,0.07952 -0.53649,0.121385 -0.48798,0.24026 0.0323,0.07918 0.18705,0.4813 0.34387,0.89361 0.41887,1.101233 1.2475,3.249165 1.70118,4.409723 0.21807,0.55783 0.46873,1.212672 0.55702,1.45521 0.0883,0.242532 0.27683,0.738627 0.41897,1.10243 0.30767,0.78747 0.92172,2.382535 1.73155,4.497917 0.32498,0.848867 0.66767,1.729352 0.76154,1.956622 0.0939,0.227275 0.17067,0.567115 0.17067,0.755205 0,0.73909 -0.92661,1.111255 -1.42768,0.573415 z m -33.34377,-5.569129 c 2.19005,-0.805088 4.41645,-1.707123 5.05959,-2.04991 l 0.5195,-0.27689 V 28.89652 c 0,-1.927872 -0.96866,-9.162832 -1.26626,-9.457765 -0.14654,-0.145227 -0.82234,-0.345325 -2.17333,-0.6435 -1.12147,-0.247519 -1.89824,-0.391815 -4.32153,-0.80278 -0.55783,-0.0946 -1.10353,-0.192977 -1.21267,-0.218609 -0.1868,-0.04387 -0.19828,-0.01937 -0.19582,0.418096 0.0114,2.019898 1.61137,14.267133 1.86386,14.267133 0.0397,0 0.81671,-0.273687 1.72666,-0.608192 z m 72.91555,-3.540248 c -2.09682,-0.234062 -3.36308,-0.744035 -5.32374,-2.144072 -1.71685,-1.225943 -2.05362,-1.661868 -3.54372,-4.58703 -1.17483,-2.306248 -1.32101,-2.783924 -1.53105,-5.003036 -0.23601,-2.4935 0.16,-4.771547 1.09782,-6.31524 1.33633,-2.1996301 3.007,-3.6098411 4.93506,-4.1656621 1.01205,-0.291754 3.31594,-0.411771 4.55967,-0.237528 1.79377,0.251301 3.25916,0.798393 4.7261,1.76445 1.3137,0.865135 2.69507,2.309771 3.21401,3.3612091 0.44315,0.897878 1.454319,4.060483 1.912729,5.982405 0.30011,1.258266 0.36046,2.158622 0.2345,3.498499 -0.33966,3.613073 -1.753269,5.653788 -4.865029,7.023273 -1.38731,0.610555 -2.18777,0.804467 -3.53458,0.85626 -0.64692,0.02488 -1.49372,0.0098 -1.88177,-0.03353 z m 3.48024,-1.89707 c 1.50325,-0.474877 2.95979,-1.304307 3.66201,-2.08534 0.66939,-0.744515 1.14302,-1.905952 1.41066,-3.459222 l 0.0595,-0.34528 -0.22376,0.146615 c -1.46722,0.961357 -3.73062,1.780567 -5.91921,2.14239 -1.36336,0.225392 -4.35056,0.22804 -5.45704,0.0048 -3.14881,-0.63519 -4.80415,-2.552673 -4.84835,-5.61613 -0.0125,-0.86615 0.004,-0.960266 0.25122,-1.455208 0.47621,-0.952401 1.20199,-1.268406 2.4159,-1.051872 0.88696,0.158214 1.72827,0.155281 2.93889,-0.01025 1.94185,-0.265506 3.66098,-0.690343 5.39196,-1.332475 1.20328,-0.446379 3.40846,-1.501917 3.40846,-1.631507 0,-0.199356 -0.73263,-1.137452 -1.32401,-1.69533 -1.14729,-1.0823021 -2.27859,-1.7219591 -3.92356,-2.2184641 -0.71019,-0.21436 -0.97014,-0.243926 -2.46944,-0.280866 -1.9929,-0.0491 -2.62548,0.05185 -3.72662,0.594737 -1.10452,0.544553 -2.42169,1.9214681 -3.15199,3.2949721 -0.63681,1.197678 -0.89065,3.235963 -0.66019,5.301188 0.19364,1.735237 0.30408,2.076058 1.33308,4.114 0.53018,1.050025 1.15117,2.15973 1.37998,2.46601 0.92628,1.23991 3.15162,2.679957 4.74607,3.07125 0.95394,0.234105 1.03797,0.24239 2.61071,0.257402 1.25994,0.01203 1.4485,-0.007 2.09573,-0.211462 z m -2.52971,-5.156157 c 2.47518,-0.178473 4.82095,-0.922575 6.80316,-2.158033 0.35177,-0.21925 0.68586,-0.398635 0.74242,-0.398635 0.0566,0 0.10285,-0.09109 0.10285,-0.202428 0,-0.35449 -0.36016,-1.923695 -0.68227,-2.972572 -0.1713,-0.55783 -0.38972,-1.275135 -0.48537,-1.594013 l -0.17391,-0.579777 -1.11516,0.558095 c -3.61275,1.80803 -8.79492,2.928655 -11.48712,2.484046 -0.44616,-0.07368 -0.64299,-0.07515 -0.71282,-0.0053 -0.12711,0.127104 -0.11665,1.186147 0.0181,1.835318 0.38202,1.840181 1.7308,2.808289 4.22176,3.030219 1.11548,0.09938 1.42811,0.09973 2.76834,0.0031 z"
       id="path42"
       inkscape:connector-curvature="0" />
  </g>
</svg>
