<svg height='100px' width='100px'  fill="#000000" xmlns="http://www.w3.org/2000/svg" xmlns:xlink="http://www.w3.org/1999/xlink" version="1.1" baseProfile="basic" x="0px" y="0px" viewBox="0 0 90 90" xml:space="preserve"><path d="M76.408,74.528L59.05,57.17c7.296-9.161,6.71-22.537-1.768-31.015c-4.557-4.557-10.529-6.835-16.501-6.835  s-11.945,2.278-16.501,6.835c-9.113,9.113-9.113,23.889,0,33.002c4.557,4.557,10.529,6.835,16.501,6.835  c5.14,0,10.277-1.692,14.515-5.067l17.358,17.358c0.519,0.519,1.198,0.778,1.878,0.778s1.359-0.259,1.878-0.778  C77.445,77.246,77.445,75.565,76.408,74.528z M28.034,55.402c-3.405-3.405-5.28-7.931-5.28-12.746s1.875-9.342,5.28-12.746  c3.405-3.405,7.931-5.28,12.746-5.28s9.342,1.875,12.746,5.28c3.405,3.405,5.28,7.931,5.28,12.746s-1.875,9.342-5.28,12.746  c-3.405,3.405-7.931,5.28-12.746,5.28S31.439,58.806,28.034,55.402z"></path><g><path d="M17.777,54.801c-0.39-0.736-0.744-1.489-1.06-2.258l-3.353,3.539c-0.834-0.507-1.809-0.805-2.856-0.805   C7.466,55.277,5,57.743,5,60.785c0,3.042,2.466,5.508,5.508,5.508c3.042,0,5.508-2.466,5.508-5.508   c0-1.154-0.356-2.224-0.963-3.109L17.777,54.801z M10.508,63.972c-1.757,0-3.187-1.43-3.187-3.187c0-1.757,1.43-3.187,3.187-3.187   s3.187,1.43,3.187,3.187C13.695,62.543,12.266,63.972,10.508,63.972z"></path><path d="M79.492,10.939c-3.042,0-5.508,2.466-5.508,5.508c0,1.115,0.334,2.152,0.904,3.019L63.999,30.96   c0.379,0.753,0.719,1.521,1.02,2.301l1.042-1.1c0,0,0,0,0-0.001l10.483-11.065c0.853,0.542,1.863,0.861,2.949,0.861   c3.042,0,5.508-2.466,5.508-5.508C85,13.405,82.534,10.939,79.492,10.939z M79.492,19.634c-1.757,0-3.187-1.43-3.187-3.187   c0-1.757,1.43-3.187,3.187-3.187s3.187,1.43,3.187,3.187C82.678,18.205,81.249,19.634,79.492,19.634z"></path><path d="M55.831,39.582l-5.965,6.297c-0.865-0.566-1.898-0.898-3.009-0.898c-1.227,0-2.356,0.406-3.271,1.084l-6.148-5.877h0   c0.515-0.838,0.818-1.821,0.818-2.878c0-3.042-2.466-5.508-5.508-5.508c-3.042,0-5.508,2.466-5.508,5.508   c0,1.154,0.356,2.225,0.963,3.11h0l-2.749,2.901c0.043,1.003,0.18,1.986,0.41,2.944l4.027-4.251   c0.834,0.507,1.809,0.805,2.857,0.805c1.146,0,2.209-0.35,3.09-0.949l6.21,5.937c-0.444,0.794-0.699,1.708-0.699,2.682   c0,3.042,2.466,5.508,5.508,5.508c0.909,0,1.765-0.224,2.521-0.615c0.593-0.402,1.152-0.859,1.691-1.347   c0.808-0.958,1.296-2.195,1.296-3.546c0-1.09-0.321-2.103-0.867-2.958l4.64-4.898C56.137,41.597,56.032,40.576,55.831,39.582z    M32.748,40.497c-1.757,0-3.187-1.43-3.187-3.187c0-1.757,1.43-3.187,3.187-3.187c1.757,0,3.187,1.43,3.187,3.187   C35.935,39.068,34.505,40.497,32.748,40.497z M46.857,53.676c-1.757,0-3.187-1.43-3.187-3.187c0-1.757,1.43-3.187,3.187-3.187   c1.757,0,3.187,1.43,3.187,3.187C50.044,52.247,48.614,53.676,46.857,53.676z"></path></g></svg>